Coordinates
version=1
nRows=10
nColumns=40
inDegrees=yes

Units are S.I. units (second, meters, Newtons, ...)
Angles are in degrees.

endheader
time	pelvis_tilt	pelvis_list	pelvis_rotation	pelvis_tx	pelvis_ty	pelvis_tz	hip_flexion_r	hip_adduction_r	hip_rotation_r	knee_angle_r	knee_angle_r_beta	ankle_angle_r	subtalar_angle_r	mtp_angle_r	hip_flexion_l	hip_adduction_l	hip_rotation_l	knee_angle_l	knee_angle_l_beta	ankle_angle_l	subtalar_angle_l	mtp_angle_l	lumbar_extension	lumbar_bending	lumbar_rotation	arm_flex_r	arm_add_r	arm_rot_r	elbow_flex_r	pro_sup_r	wrist_flex_r	wrist_dev_r	arm_flex_l	arm_add_l	arm_rot_l	elbow_flex_l	pro_sup_l	wrist_flex_l	wrist_dev_l
     54.10000000	     -1.96530160	     -5.49370071	      0.28746377	      1.08211881	      0.92914920	      0.51679880	     11.93125488	      4.09475634	    -14.10452033	     21.18634604	     21.18634604	     12.76301550	      0.63969479	     -1.56359531	     27.56950068	    -16.05828285	      1.15997727	     61.06191572	     61.06191572	      6.53994287	    -18.16647902	     11.03351370	    -10.29857527	      5.05476201	      1.38037179	     16.89379534	    -17.25771200	      1.71471002	     49.93810953	     45.54886843	      0.00000000	      0.00000000	     11.38170433	     -8.74793790	    -11.35088410	     28.57624474	     45.53112232	      0.00000000	      0.00000000
     54.11335714	     -2.12204201	     -5.45416795	      0.61449893	      1.08034511	      0.92939749	      0.51683307	     11.59281089	      4.10666417	    -14.25932125	     20.74021936	     20.74021936	     12.84244809	      0.54856227	     -1.45389820	     28.65268121	    -16.21251653	      0.64632450	     58.71420676	     58.71420676	      6.89311605	    -18.51971782	     11.29009179	    -10.35472338	      5.08902363	      1.37151740	     18.52399485	    -17.34608842	      1.46268561	     51.24833671	     45.52075887	      0.00000000	      0.00000000	     10.26969199	     -8.69765496	    -11.37321385	     27.86214122	     45.53405386	      0.00000000	      0.00000000
     54.12671429	     -2.27354236	     -5.39966006	      0.94736449	      1.07860766	      0.92963079	      0.51678473	     11.24960462	      4.08071817	    -14.49219289	     20.30858736	     20.30858736	     12.93522974	      0.60055584	     -1.41645101	     29.53506158	    -16.26560026	      0.11322842	     56.06564692	     56.06564692	      7.22392688	    -18.70907267	     11.66596677	    -10.42245543	      5.11195324	      1.38393761	     20.11216740	    -17.44462146	      1.22349744	     52.63792233	     45.48922072	      0.00000000	      0.00000000	      9.15402506	     -8.65817290	    -11.38448414	     27.15448467	     45.53505142	      0.00000000	      0.00000000
     54.14007143	     -2.43606951	     -5.33085682	      1.27094392	      1.07689540	      0.92982080	      0.51659973	     10.91273604	      4.03271156	    -14.72518024	     19.85989460	     19.85989460	     13.02539166	      0.69306692	     -1.40725644	     30.24949565	    -16.18438636	     -0.37778338	     53.17331326	     53.17331326	      7.54398432	    -18.74981983	     12.10878118	    -10.48158826	      5.12159106	      1.45342880	     21.63742275	    -17.57597825	      0.98905923	     53.96731069	     45.45976901	      0.00000000	      0.00000000	      8.09347327	     -8.60086908	    -11.39649119	     26.48062292	     45.53570498	      0.00000000	      0.00000000
     54.15342857	     -2.60024277	     -5.24934919	      1.60663153	      1.07519792	      0.93002397	      0.51622129	     10.55472239	      3.96623114	    -14.98415135	     19.36425798	     19.36425798	     13.09533458	      0.78632856	     -1.41731722	     30.79998119	    -15.93556500	     -0.74184775	     50.05015974	     50.05015974	      7.72991587	    -18.72200132	     12.54562192	    -10.51749643	      5.13348031	      1.51176141	     23.09834472	    -17.70938934	      0.74757600	     55.25938944	     45.43178204	      0.00000000	      0.00000000	      7.06763918	     -8.54038736	    -11.41385933	     25.86492972	     45.53687160	      0.00000000	      0.00000000
     54.16678571	     -2.86507556	     -5.15707962	      1.92467243	      1.07347722	      0.92998280	      0.51558713	     10.31409744	      3.87611058	    -15.16964045	     18.87435419	     18.87435419	     13.18566338	      0.85797741	     -1.44603760	     31.34666271	    -15.50707877	     -0.88364747	     46.83154755	     46.83154755	      7.91969561	    -18.55219975	     12.84179212	    -10.46634509	      5.15080437	      1.72872504	     24.50345988	    -17.96495740	      0.50251304	     56.27862729	     45.41343114	      0.00000000	      0.00000000	      6.10939716	     -8.40654095	    -11.43521690	     25.38497935	     45.53404787	      0.00000000	      0.00000000
     54.18014286	     -2.97157571	     -5.12261679	      2.31349068	      1.07191067	      0.93019745	      0.51476526	      9.79554277	      3.85299793	    -15.51979636	     18.19652563	     18.19652563	     13.21244173	      1.10940098	     -1.61620806	     31.58462556	    -15.00375585	     -0.76320629	     43.42494389	     43.42494389	      7.82411394	    -18.20263890	     12.70118197	    -10.57251951	      5.24615085	      1.63380777	     25.82121896	    -17.93103258	      0.21153792	     57.82587910	     45.37818810	      0.00000000	      0.00000000	      5.08071089	     -8.38775398	    -11.51427407	     24.88358612	     45.55300941	      0.00000000	      0.00000000
     54.19350000	     -3.18697809	     -5.04085916	      2.65033814	      1.07038780	      0.93017186	      0.51377534	      9.37124302	      3.77582574	    -15.81568230	     17.45596691	     17.45596691	     12.98455469	      1.29818441	     -2.54014651	     31.71863309	    -14.42608579	     -0.66152443	     39.77125119	     39.77125119	      6.90612837	    -17.69160433	     10.26528909	    -10.56966818	      5.27803501	      1.98815210	     26.56583608	    -18.23130072	     -0.37315223	     59.80577258	     45.34123951	      0.00000000	      0.00000000	      4.19863627	     -8.23811074	    -11.89031537	     24.82457789	     45.68787425	      0.00000000	      0.00000000
     54.20685714	     -3.39329379	     -4.99375524	      3.00401957	      1.06891902	      0.93016392	      0.51262404	      8.89032380	      3.76849806	    -16.00382639	     16.62541011	     16.62541011	     12.84874234	      1.35970291	     -3.04190427	     31.83163226	    -13.81003866	     -0.32868077	     36.25351654	     36.25351654	      6.42545979	    -16.72628982	      8.97413153	    -10.52505070	      5.33863593	      2.06639740	     27.77292798	    -18.22959673	     -0.72395823	     60.64074314	     45.33862048	      0.00000000	      0.00000000	      3.30316869	     -8.14903511	    -12.20718628	     24.54989473	     45.80506147	      0.00000000	      0.00000000
     54.22021429	     -3.75470119	     -5.08302029	      3.39677262	      1.06730960	      0.92967842	      0.51130323	      8.80331032	      3.82596802	    -16.26052975	     16.23288150	     16.23288150	     12.98702775	      1.29694858	     -3.08012748	     32.27831961	    -13.27011780	      0.28606579	     33.16617100	     33.16617100	      6.59107569	    -15.22494855	      9.19281355	    -10.25197756	      5.55384919	      2.37874404	     28.83578355	    -18.58175538	     -0.91034084	     61.11109859	     45.33531004	      0.00000000	      0.00000000	      2.59545255	     -8.02965927	    -12.24525974	     24.30077964	     45.80264579	      0.00000000	      0.00000000
